<svg xmlns="http://www.w3.org/2000/svg" width="37" height="37" viewBox="0 0 37 37"><defs><style>.a{fill:#e58b32;}.b{fill:#fff;}</style></defs><g transform="translate(-445 -61)"><circle class="a" cx="18.5" cy="18.5" r="18.5" transform="translate(445 61)"/><path class="b" d="M8.006,34.715l-.727.727a.441.441,0,0,0,0,.623l5.694,5.694H.44A.44.44,0,0,0,0,42.2v1.028a.44.44,0,0,0,.44.44H12.973L7.279,49.362a.441.441,0,0,0,0,.623l.727.727a.441.441,0,0,0,.623,0l7.687-7.687a.441.441,0,0,0,0-.623L8.629,34.715A.44.44,0,0,0,8.006,34.715Z" transform="translate(455.963 37.377)"/></g></svg>